<?xml version="1.0" standalone="no"?>
<!DOCTYPE svg PUBLIC "-//W3C//DTD SVG 20010904//EN"
 "http://www.w3.org/TR/2001/REC-SVG-20010904/DTD/svg10.dtd">
<svg version="1.0" xmlns="http://www.w3.org/2000/svg"
 width="500.000000pt" height="500.000000pt" viewBox="0 0 500.000000 500.000000"
 preserveAspectRatio="xMidYMid meet">

<g transform="translate(0.000000,500.000000) scale(0.100000,-0.100000)"
fill="#000000" stroke="none">
<path d="M2320 4990 c-104 -9 -245 -27 -287 -37 -12 -3 -23 -14 -25 -26 -2
-17 -11 -21 -48 -23 -58 -2 -343 -97 -488 -162 -147 -65 -338 -177 -470 -276
-141 -105 -376 -341 -483 -486 -120 -162 -180 -259 -262 -428 -149 -303 -226
-606 -246 -958 -25 -439 56 -838 249 -1229 194 -395 505 -746 872 -983 215
-138 489 -262 638 -288 94 -17 155 -33 215 -58 57 -24 428 -35 790 -24 150 4
198 9 230 23 52 23 172 55 209 55 51 0 208 59 371 139 565 278 990 733 1230
1319 292 715 222 1571 -183 2226 -338 547 -827 917 -1456 1101 -66 19 -137 35
-158 35 -31 0 -38 4 -38 19 0 25 -15 30 -155 47 -159 19 -375 25 -505 14z
m260 -293 c64 -21 106 -47 124 -78 29 -49 21 -75 -40 -135 -65 -63 -187 -126
-424 -218 -80 -32 -154 -61 -165 -66 -11 -5 -49 -21 -85 -36 -36 -16 -83 -39
-104 -52 -22 -14 -101 -55 -175 -93 -75 -38 -192 -102 -261 -143 -69 -41 -143
-84 -164 -96 -22 -12 -84 -51 -138 -86 -55 -36 -114 -73 -131 -82 -18 -10 -58
-35 -90 -56 -83 -54 -182 -89 -227 -81 -71 13 -86 48 -69 154 21 128 55 185
224 374 346 389 857 649 1385 706 111 12 283 6 340 -12z m7 -1378 c177 -24
340 -100 466 -218 121 -114 204 -250 249 -407 32 -112 32 -314 -1 -429 -69
-245 -226 -437 -446 -546 -536 -267 -1175 104 -1222 709 -11 151 36 347 116
481 176 295 504 456 838 410z m-847 -32 c0 -2 -19 -21 -42 -42 l-43 -40 40 43
c36 39 45 47 45 39z m-505 -967 l-160 -5 150 -5 150 -5 11 -56 c74 -375 326
-679 678 -819 147 -58 337 -86 476 -71 l75 8 -75 3 c-111 3 -142 7 -170 18
-19 8 1 10 88 11 177 1 288 24 440 89 180 78 323 188 445 342 32 41 63 75 67
75 5 0 12 4 17 9 5 5 3 6 -4 2 -18 -10 -16 4 5 37 10 15 21 24 25 21 9 -10 28
46 21 58 -4 6 -2 8 3 5 12 -8 26 20 17 34 -3 5 -1 9 4 9 11 0 44 99 36 111 -2
5 0 19 7 31 7 12 11 39 11 60 -2 37 14 60 27 40 5 -8 192 -12 633 -14 345 -2
628 -5 631 -8 8 -9 -41 -279 -77 -420 -92 -364 -269 -674 -541 -946 -232 -232
-512 -419 -804 -539 -266 -109 -373 -140 -622 -182 -146 -24 -190 -27 -404
-27 -265 -1 -295 1 -476 39 -177 37 -341 95 -514 179 -253 124 -444 264 -645
473 -226 234 -382 482 -495 787 -70 190 -152 578 -132 630 6 14 58 16 474 18
465 3 466 3 158 8 -282 5 -268 5 160 6 259 0 398 -3 310 -6z m182 -102 c-3 -8
-6 -5 -6 6 -1 11 2 17 5 13 3 -3 4 -12 1 -19z"/>
<path d="M3435 1949 c-4 -6 -5 -12 -2 -15 2 -3 7 2 10 11 7 17 1 20 -8 4z"/>
<path d="M3385 1864 c-9 -15 -12 -23 -6 -20 11 7 35 46 28 46 -3 0 -12 -12
-22 -26z"/>
<path d="M3349 1813 c-13 -16 -12 -17 4 -4 16 13 21 21 13 21 -2 0 -10 -8 -17
-17z"/>
<path d="M2638 1373 c6 -2 18 -2 25 0 6 3 1 5 -13 5 -14 0 -19 -2 -12 -5z"/>
</g>
</svg>
